<svg id="bc19829e-c756-4e54-bdd1-228b7e8c33a9" data-name="레이어 1" xmlns="http://www.w3.org/2000/svg" viewBox="0 0 280 90"><defs><style>.b9a6a2ff-80ef-4f39-856a-afebc33d085d{fill:#fff;}</style></defs><title>b_start_clicked</title><polygon class="b9a6a2ff-80ef-4f39-856a-afebc33d085d" points="105.24 49.99 93.96 49.99 93.96 51.33 105.24 51.33 105.24 49.99 105.24 49.99"/><polygon class="b9a6a2ff-80ef-4f39-856a-afebc33d085d" points="105.41 34.46 102.29 34.46 102.29 35.9 105.41 35.9 105.41 34.46 105.41 34.46"/><polygon class="b9a6a2ff-80ef-4f39-856a-afebc33d085d" points="96.91 34.46 93.79 34.46 93.79 35.9 96.91 35.9 96.91 34.46 96.91 34.46"/><polygon class="b9a6a2ff-80ef-4f39-856a-afebc33d085d" points="70.94 48.38 60.65 48.38 60.65 50.31 70.94 50.31 70.94 48.38 70.94 48.38"/><polygon class="b9a6a2ff-80ef-4f39-856a-afebc33d085d" points="62.6 34.83 58.49 34.83 58.49 37.8 62.6 37.8 62.6 34.83 62.6 34.83"/><path class="b9a6a2ff-80ef-4f39-856a-afebc33d085d" d="M129.08,34.77H124a3.49,3.49,0,0,0-2.62.91,3.63,3.63,0,0,0,0,4.76,3.49,3.49,0,0,0,2.62.91h5.1a3.52,3.52,0,0,0,2.63-.91,3.63,3.63,0,0,0,0-4.76,3.52,3.52,0,0,0-2.63-.91Z"/><path class="b9a6a2ff-80ef-4f39-856a-afebc33d085d" d="M274.5,4A1.51,1.51,0,0,1,276,5.5v79a1.51,1.51,0,0,1-1.5,1.5H5.5A1.51,1.51,0,0,1,4,84.5V5.5A1.51,1.51,0,0,1,5.5,4h269M106.29,25.81H84.4V36.67H83.1V48.35h1.3V58.9h30.4V58H143v-.68h12.35V58.9H169v-33H155.39v.28H137.81v2.41A12.07,12.07,0,0,0,135.1,27a13.34,13.34,0,0,0-5.19-1h-6.75a13.35,13.35,0,0,0-5.2,1,11.8,11.8,0,0,0-3.16,2V25.81h-8.51m110.76.48H202.26v-.42H188.7v.42H172V39.05h8c-1,1.23-2.14,2.46-3.33,3.66-1.34,1.36-2.82,2.76-4.38,4.16l-3.1,2.78,2.89,3,3.6,3.71,2.64,2.72,2.86-2.48c.86-.75,1.77-1.56,2.68-2.41s1.83-1.73,2.72-2.62c.73-.74,1.45-1.5,2.15-2.26v9.6h13.56V55.43l.89.92L205.73,59l2.85-2.37c.92-.76,1.87-1.58,2.81-2.42s1.88-1.72,2.79-2.61,1.8-1.81,2.64-2.7l.23-.25V58.9h13.56v-33H217.05v.42M66.94,26.15h-18V46.48h2.15V58.9H80.5v-33H66.94v.28m140.81,12.9c-.65.78-1.35,1.55-2.09,2.32V39.05h2.09M274.5,0H5.5A5.5,5.5,0,0,0,0,5.5v79A5.5,5.5,0,0,0,5.5,90h269a5.5,5.5,0,0,0,5.5-5.5V5.5A5.5,5.5,0,0,0,274.5,0ZM102.29,31.2h3.12V29.81h5.39v9.64h-8v1.22h9.32v3.68h-25V40.67h9.33V39.45h-8V29.81h5.39V31.2h3.12V29.81h5.38V31.2ZM221.05,54.9v-25h5.56v25Zm-28.35,0v-25h5.56V38.6h3.4v5.07h-3.4V54.9ZM156.27,43.39V38.31h3.12V29.87H165v25h-5.56v-4L157,53.31H141.81V39.19h7.91V34.91h-7.91V30.15h13.47V44h-7.91v4.53h12v-5.1Zm-85.33-.48v-13H76.5v13Zm52.22,3.2a9.39,9.39,0,0,1-3.64-.65A7.34,7.34,0,0,1,117,43.7a7.26,7.26,0,0,1-1.53-2.57,9.2,9.2,0,0,1-.51-3.07,9.3,9.3,0,0,1,.51-3.08,7.12,7.12,0,0,1,4.1-4.32,9.21,9.21,0,0,1,3.64-.65h6.75a9.24,9.24,0,0,1,3.64.65,7.3,7.3,0,0,1,2.57,1.76A7.22,7.22,0,0,1,137.65,35a9.3,9.3,0,0,1,.51,3.08,9.2,9.2,0,0,1-.51,3.07,7.26,7.26,0,0,1-1.53,2.57,7.43,7.43,0,0,1-2.57,1.76,9.43,9.43,0,0,1-3.64.65ZM52.94,42.48V30.15H68.16V42.48Zm150.53-7.43V30.29H218V38.6a8.12,8.12,0,0,1-.45,2.66,7.43,7.43,0,0,1-1.36,2.38c-.7.84-1.45,1.68-2.26,2.54s-1.64,1.72-2.51,2.57-1.75,1.68-2.66,2.49-1.81,1.59-2.69,2.33l-3.6-3.72q2.52-2.18,4.74-4.34a49.11,49.11,0,0,0,4-4.36,5,5,0,0,0,.87-1.49,5.15,5.15,0,0,0,.3-1.8V35.05Zm-27.5,0V30.29h14.21V38.6a7.88,7.88,0,0,1-.46,2.66,7.25,7.25,0,0,1-1.36,2.38c-.7.84-1.44,1.68-2.22,2.54s-1.6,1.72-2.44,2.57-1.7,1.68-2.58,2.49-1.74,1.59-2.59,2.33l-3.6-3.72q2.43-2.18,4.56-4.34c1.42-1.43,2.73-2.89,3.94-4.36a5,5,0,0,0,.87-1.49,5.39,5.39,0,0,0,.29-1.8V35.05ZM55.09,54.9V43.76H76.5V54.9H70.94v-2l-1.87,2ZM94,46.65h11.28V45.12h5.56V54.9H88.4V45.12H94v1.53ZM114,54V49.23h25V54Z"/></svg>