<svg id="e24049fe-412b-46c7-b98a-83127943907d" data-name="레이어 1" xmlns="http://www.w3.org/2000/svg" viewBox="0 0 280 90"><defs><style>.b42c11bf-9d95-4d00-9f3b-a37c3e9993ac{fill:#fff;}</style></defs><title>b_start</title><rect class="b42c11bf-9d95-4d00-9f3b-a37c3e9993ac" x="93.96" y="49.99" width="11.28" height="1.33"/><rect class="b42c11bf-9d95-4d00-9f3b-a37c3e9993ac" x="102.29" y="34.46" width="3.12" height="1.45"/><rect class="b42c11bf-9d95-4d00-9f3b-a37c3e9993ac" x="93.79" y="34.46" width="3.12" height="1.45"/><rect class="b42c11bf-9d95-4d00-9f3b-a37c3e9993ac" x="60.65" y="48.38" width="10.29" height="1.93"/><rect class="b42c11bf-9d95-4d00-9f3b-a37c3e9993ac" x="58.49" y="34.83" width="4.11" height="2.98"/><path class="b42c11bf-9d95-4d00-9f3b-a37c3e9993ac" d="M124,41.35h5.1a3.52,3.52,0,0,0,2.63-.91,3.63,3.63,0,0,0,0-4.76,3.52,3.52,0,0,0-2.63-.91H124a3.49,3.49,0,0,0-2.62.91,3.63,3.63,0,0,0,0,4.76A3.49,3.49,0,0,0,124,41.35Z"/><path class="b42c11bf-9d95-4d00-9f3b-a37c3e9993ac" d="M274.5,0H5.5A5.5,5.5,0,0,0,0,5.5v79A5.5,5.5,0,0,0,5.5,90h269a5.5,5.5,0,0,0,5.5-5.5V5.5A5.5,5.5,0,0,0,274.5,0ZM115.42,35a7.12,7.12,0,0,1,4.1-4.32,9.21,9.21,0,0,1,3.64-.65h6.75a9.24,9.24,0,0,1,3.64.65,7.3,7.3,0,0,1,2.57,1.76A7.22,7.22,0,0,1,137.65,35a9.3,9.3,0,0,1,.51,3.08,9.2,9.2,0,0,1-.51,3.07,7.26,7.26,0,0,1-1.53,2.57,7.43,7.43,0,0,1-2.57,1.76,9.43,9.43,0,0,1-3.64.65h-6.75a9.39,9.39,0,0,1-3.64-.65A7.34,7.34,0,0,1,117,43.7a7.26,7.26,0,0,1-1.53-2.57,9.2,9.2,0,0,1-.51-3.07A9.3,9.3,0,0,1,115.42,35ZM52.94,30.15H68.16V42.48H52.94ZM76.5,54.9H70.94v-2l-1.87,2h-14V43.76H76.5Zm0-12H70.94v-13H76.5Zm34.3,12H88.4V45.12H94v1.53h11.28V45.12h5.56Zm1.3-10.55h-25V40.67h9.33V39.45h-8V29.81h5.39V31.2h3.12V29.81h5.38V31.2h3.12V29.81h5.39v9.64h-8v1.22h9.32ZM139,54H114V49.23h25ZM165,54.9h-5.56v-4L157,53.31H141.81V39.19h7.91V34.91h-7.91V30.15h13.47V44h-7.91v4.53h12v-5.1h-3.12V38.31h3.12V29.87H165Zm25.23-16.3a7.88,7.88,0,0,1-.46,2.66,7.25,7.25,0,0,1-1.36,2.38c-.7.84-1.44,1.68-2.22,2.54s-1.6,1.72-2.44,2.57-1.7,1.68-2.58,2.49-1.74,1.59-2.59,2.33l-3.6-3.72q2.43-2.18,4.56-4.34c1.42-1.43,2.73-2.89,3.94-4.36a5,5,0,0,0,.87-1.49,5.39,5.39,0,0,0,.29-1.8V35.05H176V30.29h14.21Zm11.48,5.07h-3.4V54.9H192.7v-25h5.56V38.6h3.4ZM218,38.6a8.12,8.12,0,0,1-.45,2.66,7.43,7.43,0,0,1-1.36,2.38c-.7.84-1.45,1.68-2.26,2.54s-1.64,1.72-2.51,2.57-1.75,1.68-2.66,2.49-1.81,1.59-2.69,2.33l-3.6-3.72q2.52-2.18,4.74-4.34a49.11,49.11,0,0,0,4-4.36,5,5,0,0,0,.87-1.49,5.15,5.15,0,0,0,.3-1.8V35.05h-8.91V30.29H218Zm8.65,16.3h-5.56v-25h5.56Z"/></svg>