<svg id="ef8ad783-9356-4c50-9296-cea6d22263d5" data-name="레이어 1" xmlns="http://www.w3.org/2000/svg" viewBox="0 0 536.35 126.99"><defs><style>.f475fe32-195f-4399-aae1-e35ebc3e9688{fill:none;stroke:#fff;}.b88dc508-2c68-4742-b25f-b629593f4cf3{fill:#fff;}</style></defs><title>title</title><path class="f475fe32-195f-4399-aae1-e35ebc3e9688" d="M127.51,124.36H14.39V94.74h36V88.6a60.82,60.82,0,0,1-16.27-5.47,43.9,43.9,0,0,1-11.61-8.47,32.66,32.66,0,0,1-9.33-23,32.75,32.75,0,0,1,3.6-15.07,34.89,34.89,0,0,1,10.8-12.34A56.52,56.52,0,0,1,45.67,15.9,93.67,93.67,0,0,1,71,12.83,93.73,93.73,0,0,1,96.23,15.9a56.46,56.46,0,0,1,18.07,8.34,34.83,34.83,0,0,1,10.81,12.34,33.4,33.4,0,0,1,1.27,27.34,33.14,33.14,0,0,1-7,10.74,43.84,43.84,0,0,1-11.6,8.47A60.89,60.89,0,0,1,91.49,88.6v6.14h36ZM55.07,46.58l-1.46,4A75.35,75.35,0,0,0,62,52.65q4.53.87,9.2,1.34t9.21.73q4.53.27,8.27.27V51a137.61,137.61,0,0,1-16.81-1.13A112.36,112.36,0,0,1,55.07,46.58Z"/><path class="f475fe32-195f-4399-aae1-e35ebc3e9688" d="M137.12,14.83h36V28.44h77.11V52.72H153.92q-8,0-12.4-4.4t-4.4-12.41Zm0,59.5V56.19H250.24V74.33Zm45.62,52.16q-23.88,0-34.75-5.54t-10.87-17v-4.8c3.82,0,7.29-.06,10.4-.2s6.14-.33,9.07-.6,5.94-.62,9-1.07,6.47-1,10.2-1.73v-3.6c-3.73.71-7.14,1.29-10.2,1.73s-6.07.8-9,1.07-6,.47-9.07.6-6.58.2-10.4.2V77.93H250.24V95.41a99.51,99.51,0,0,1-18.61,4.33,144.73,144.73,0,0,1-20.08,1.4v3.61a144.75,144.75,0,0,0,20.08-1.41A98.73,98.73,0,0,0,250.24,99v20.14a208.33,208.33,0,0,1-29.42,5.4A330.11,330.11,0,0,1,182.74,126.49Z"/><path class="f475fe32-195f-4399-aae1-e35ebc3e9688" d="M258.51,52.45a51.34,51.34,0,0,1,2.73-17.61,33.91,33.91,0,0,1,7.61-12.4,29.68,29.68,0,0,1,11.54-7.27,44,44,0,0,1,14.67-2.34,44.63,44.63,0,0,1,14.74,2.34,29.73,29.73,0,0,1,11.61,7.27,34,34,0,0,1,7.6,12.4,51.33,51.33,0,0,1,2.74,17.61A51.29,51.29,0,0,1,329,70.06a33.35,33.35,0,0,1-7.6,12.34,30.8,30.8,0,0,1-11.61,7.27,43.61,43.61,0,0,1-14.74,2.4,44.25,44.25,0,0,1-14.67-2.33,29.8,29.8,0,0,1-11.54-7.27,34.07,34.07,0,0,1-7.61-12.34A51.2,51.2,0,0,1,258.51,52.45Zm59.09,71.91H259.84V94.74h59.1a92.64,92.64,0,0,0,15.47-1.2V14.83H373V124.36H334.41v-3.61a41.51,41.51,0,0,1-8.07,2.67A40.29,40.29,0,0,1,317.6,124.36ZM280.39,46.45l-2.4,3.6a61.64,61.64,0,0,0,14.4,4.54,82,82,0,0,0,15.34,1.46v-4a63.41,63.41,0,0,1-14.47-1.6A89.35,89.35,0,0,1,280.39,46.45Z"/><path class="f475fe32-195f-4399-aae1-e35ebc3e9688" d="M422.72,59.26V14.83h69.51v55.9h-58q-6,0-8.74-2.74T422.72,59.26Zm0,42.15V74.33H535.85v50H449.67Q422.73,124.36,422.72,101.41ZM445.8,38.18l-1.73,3.87a82.84,82.84,0,0,0,27.08,4.4V42.58a68.41,68.41,0,0,1-13-1.2A103.66,103.66,0,0,1,445.8,38.18Zm17.61,53.76-1.73,3.87a55.55,55.55,0,0,0,8.53,3.13,77.28,77.28,0,0,0,9.28,2,86.5,86.5,0,0,0,9.47.94,89.4,89.4,0,0,0,9.14-.07V97.94a69.79,69.79,0,0,1-8.68,0,87.52,87.52,0,0,1-9-1,76.16,76.16,0,0,1-8.87-2A55.08,55.08,0,0,1,463.41,91.94Zm72.44-21.21H497.29V14.83h38.56Z"/><path class="b88dc508-2c68-4742-b25f-b629593f4cf3" d="M114.32,111.52H1.2V81.91h36V75.77A61.25,61.25,0,0,1,20.94,70.3a43.84,43.84,0,0,1-11.6-8.47A33.14,33.14,0,0,1,3.6,23.75,34.93,34.93,0,0,1,14.41,11.41,56.15,56.15,0,0,1,32.48,3.07,93.33,93.33,0,0,1,57.76,0,93.28,93.28,0,0,1,83,3.07a56.21,56.21,0,0,1,18.08,8.34,34.89,34.89,0,0,1,10.8,12.34,33.3,33.3,0,0,1,1.27,27.34,33.11,33.11,0,0,1-7,10.74A44.06,44.06,0,0,1,94.58,70.3a61.17,61.17,0,0,1-16.27,5.47v6.14h36ZM41.89,33.75l-1.47,4a77.83,77.83,0,0,0,8.41,2.07q4.53.87,9.2,1.33c3.11.32,6.18.56,9.2.74s5.78.26,8.27.26v-4A137.45,137.45,0,0,1,58.7,37,114.69,114.69,0,0,1,41.89,33.75Z"/><path class="b88dc508-2c68-4742-b25f-b629593f4cf3" d="M123.93,2h36V15.61h77.1V39.89H140.74q-8,0-12.41-4.41t-4.4-12.4Zm0,59.5V43.36H237.05V61.5Zm45.62,52.16q-23.88,0-34.75-5.54t-10.87-17v-4.8q5.73,0,10.4-.2c3.12-.13,6.14-.33,9.08-.6s5.93-.62,9-1.07,6.47-1,10.21-1.73v-3.6q-5.61,1.06-10.21,1.73c-3.07.45-6.07.8-9,1.07s-6,.47-9.08.6-6.58.2-10.4.2V65.1H237.05V82.58a99.33,99.33,0,0,1-18.61,4.33,146,146,0,0,1-20.07,1.4v3.6a144.48,144.48,0,0,0,20.07-1.4,99.33,99.33,0,0,0,18.61-4.33v20.14a208.17,208.17,0,0,1-29.41,5.4A330.42,330.42,0,0,1,169.55,113.66Z"/><path class="b88dc508-2c68-4742-b25f-b629593f4cf3" d="M245.32,39.62A51.05,51.05,0,0,1,248.06,22a33.89,33.89,0,0,1,7.6-12.4A29.9,29.9,0,0,1,267.2,2.33,44.36,44.36,0,0,1,281.88,0a45,45,0,0,1,14.74,2.33,29.82,29.82,0,0,1,11.6,7.28A34,34,0,0,1,315.83,22a51.3,51.3,0,0,1,2.73,17.61,51.3,51.3,0,0,1-2.73,17.61,33.45,33.45,0,0,1-7.61,12.34,30.76,30.76,0,0,1-11.6,7.27,43.7,43.7,0,0,1-14.74,2.4,44.36,44.36,0,0,1-14.68-2.33,29.87,29.87,0,0,1-11.54-7.27,34.05,34.05,0,0,1-7.6-12.34A51,51,0,0,1,245.32,39.62Zm59.1,71.9H246.66V81.91h59.09a92.76,92.76,0,0,0,15.48-1.2V2h38.55V111.52H321.23v-3.6a41.51,41.51,0,0,1-8.07,2.67A40.36,40.36,0,0,1,304.42,111.52ZM267.2,33.62l-2.4,3.6a61.39,61.39,0,0,0,14.41,4.53,82,82,0,0,0,15.34,1.47v-4a63.5,63.5,0,0,1-14.48-1.6A89.35,89.35,0,0,1,267.2,33.62Z"/><path class="b88dc508-2c68-4742-b25f-b629593f4cf3" d="M409.54,46.42V2H479V57.9H421c-4,0-6.92-.91-8.74-2.74S409.54,50.43,409.54,46.42Zm0,42.16V61.5H522.66v50H436.49Q409.54,111.52,409.54,88.58Zm23.08-63.23-1.74,3.86A82.62,82.62,0,0,0,458,33.62V29.75a68.3,68.3,0,0,1-13-1.2A103.17,103.17,0,0,1,432.62,25.35Zm17.61,53.76L448.49,83A55.29,55.29,0,0,0,457,86.11a78.66,78.66,0,0,0,9.27,2,84.31,84.31,0,0,0,9.47.93,86.65,86.65,0,0,0,9.14-.06V85.11a69.63,69.63,0,0,1-8.67,0,87.4,87.4,0,0,1-9-1,78.75,78.75,0,0,1-8.87-2A57.29,57.29,0,0,1,450.23,79.11ZM522.66,57.9H484.11V2h38.55Z"/></svg>